# xmcd
#
# Track frame offsets: 
#        150
#        25462
#        53045
#        67552
#        88552
#        130275
#        155227
#        185807
#        209212
#
# Disc length: 3248 seconds
#
# Revision: 0
# Processed by: cddbd v1.5.2PL0 Copyright (c) Steve Scherf et al.
# Submitted via: ExactAudioCopy v1.3
#
DISCID=830cae09
DTITLE=Billy Branch and The Sons Of Blues - Mississippi Flashback
DYEAR=1992
DGENRE=Blues
TTITLE0=I'm Ready
TTITLE1=Key To The Highway
TTITLE2=Mississippi Flashback
TTITLE3=How Can You Stand It Baby
TTITLE4=Tin Pan Alley
TTITLE5=Roaches
TTITLE6=My Baby Caught The Train (Whose Been Talking)
TTITLE7=How Can You Stand It Baby
TTITLE8=Are You Serious
EXTD=
EXTT0=
EXTT1=
EXTT2=
EXTT3=
EXTT4=
EXTT5=
EXTT6=
EXTT7=
EXTT8=
PLAYORDER=
